<svg xmlns="http://www.w3.org/2000/svg" width="1200" height="360" viewBox="0 0 1200 360" role="img" aria-labelledby="title desc">
  <title id="title">alsi-lawr GitHub profile header</title>
  <desc id="desc">Developer tools for the editor, terminal, and runtime.</desc>
  <defs>
    <linearGradient id="bg-light" x1="0" y1="0" x2="1" y2="1">
      <stop offset="0" stop-color="#ffffff"/>
      <stop offset="1" stop-color="#f6f8fa"/>
    </linearGradient>
    <linearGradient id="accent-light" x1="0" y1="0" x2="1" y2="0">
      <stop offset="0" stop-color="#8250df"/>
      <stop offset="0.55" stop-color="#1a7f37"/>
      <stop offset="1" stop-color="#9a6700"/>
    </linearGradient>
    <radialGradient id="orb-light" cx="50%" cy="50%" r="50%">
      <stop offset="0" stop-color="#a475f9" stop-opacity="0.28"/>
      <stop offset="1" stop-color="#a475f9" stop-opacity="0"/>
    </radialGradient>
    <pattern id="grid-light" width="28" height="28" patternUnits="userSpaceOnUse">
      <path d="M 28 0 L 0 0 0 28" fill="none" stroke="#d8dee4" stroke-opacity="0.34" stroke-width="1"/>
    </pattern>
    <filter id="shadow-light" x="-20%" y="-20%" width="140%" height="140%">
      <feDropShadow dx="0" dy="12" stdDeviation="14" flood-color="#000000" flood-opacity="0.12"/>
    </filter>
  </defs>

  <rect width="1200" height="360" rx="24" fill="url(#bg-light)"/>
  <rect width="1200" height="360" rx="24" fill="url(#grid-light)" opacity="0.55"/>
  <circle cx="1045" cy="88" r="210" fill="url(#orb-light)"/>
  <circle cx="1128" cy="322" r="140" fill="url(#orb-light)" opacity="0.55"/>

  <g filter="url(#shadow-light)">
    <rect x="42" y="34" width="1116" height="292" rx="18" fill="#ffffff" stroke="#d0d7de"/>
  </g>

  <circle cx="70" cy="62" r="6" fill="#ff5f57"/>
  <circle cx="90" cy="62" r="6" fill="#febc2e"/>
  <circle cx="110" cy="62" r="6" fill="#28c840"/>
  <text x="140" y="68" fill="#59636e" font-family="ui-monospace, SFMono-Regular, Menlo, Consolas, Liberation Mono, monospace" font-size="14">github profile / main</text>
  <line x1="42" y1="88" x2="1158" y2="88" stroke="#d0d7de"/>

  <text x="76" y="128" fill="#1a7f37" font-family="ui-monospace, SFMono-Regular, Menlo, Consolas, Liberation Mono, monospace" font-size="17">$ whoami</text>
  <text x="74" y="193" fill="#1f2328" font-family="ui-monospace, SFMono-Regular, Menlo, Consolas, Liberation Mono, monospace" font-size="58" font-weight="700" letter-spacing="-2">alsi-lawr</text>
  <rect x="76" y="211" width="610" height="4" rx="2" fill="url(#accent-light)"/>
  <text x="76" y="248" fill="#59636e" font-family="ui-monospace, SFMono-Regular, Menlo, Consolas, Liberation Mono, monospace" font-size="20">developer tools for the editor, terminal, and runtime</text>

  <g font-family="ui-monospace, SFMono-Regular, Menlo, Consolas, Liberation Mono, monospace" font-size="14" font-weight="600">
    <rect x="76" y="274" width="105" height="30" rx="15" fill="#f6f8fa" stroke="#d0d7de"/>
    <text x="128.5" y="294" fill="#8250df" text-anchor="middle">Neovim</text>
    <rect x="192" y="274" width="78" height="30" rx="15" fill="#f6f8fa" stroke="#d0d7de"/>
    <text x="231" y="294" fill="#8250df" text-anchor="middle">.NET</text>
    <rect x="281" y="274" width="60" height="30" rx="15" fill="#f6f8fa" stroke="#d0d7de"/>
    <text x="311" y="294" fill="#8250df" text-anchor="middle">F#</text>
    <rect x="352" y="274" width="70" height="30" rx="15" fill="#f6f8fa" stroke="#d0d7de"/>
    <text x="387" y="294" fill="#8250df" text-anchor="middle">Nix</text>
    <rect x="433" y="274" width="105" height="30" rx="15" fill="#f6f8fa" stroke="#d0d7de"/>
    <text x="485.5" y="294" fill="#8250df" text-anchor="middle">Agents</text>
  </g>

  <g fill="none" stroke="#afb8c1" stroke-width="1.5" stroke-linecap="round">
    <path d="M785 158 C832 116 876 111 916 140"/>
    <path d="M785 158 C832 211 881 218 929 200"/>
    <path d="M916 140 C959 111 1002 116 1032 150"/>
    <path d="M929 200 C955 232 982 242 1010 240"/>
    <path d="M1032 150 C1074 151 1102 175 1115 215"/>
    <path d="M1010 240 C1050 249 1081 239 1115 215"/>
  </g>

  <g font-family="ui-monospace, SFMono-Regular, Menlo, Consolas, Liberation Mono, monospace" font-size="14" font-weight="700" text-anchor="middle">
    <circle cx="785" cy="158" r="34" fill="#f6f8fa" stroke="#8250df" stroke-width="2"/>
    <text x="785" y="163" fill="#1f2328">nvim</text>

    <circle cx="916" cy="140" r="37" fill="#f6f8fa" stroke="#1a7f37" stroke-width="2"/>
    <text x="916" y="145" fill="#1f2328">tools</text>

    <circle cx="929" cy="200" r="34" fill="#f6f8fa" stroke="#9a6700" stroke-width="2"/>
    <text x="929" y="205" fill="#1f2328">.NET</text>

    <circle cx="1032" cy="150" r="38" fill="#f6f8fa" stroke="#8250df" stroke-width="2"/>
    <text x="1032" y="155" fill="#1f2328">agents</text>

    <circle cx="1010" cy="240" r="31" fill="#f6f8fa" stroke="#1a7f37" stroke-width="2"/>
    <text x="1010" y="245" fill="#1f2328">Nix</text>

    <circle cx="1115" cy="215" r="27" fill="#f6f8fa" stroke="#9a6700" stroke-width="2"/>
    <text x="1115" y="220" fill="#1f2328">web</text>
  </g>
</svg>